<mxfile host="app.diagrams.net" agent="Mozilla/5.0 (X11; Linux x86_64; rv:135.0) Gecko/20100101 Firefox/135.0" version="26.1.0">
  <diagram name="Page-1" id="gzxxnculSl8CYBodiCEE">
    <mxGraphModel dx="2074" dy="1122" grid="1" gridSize="10" guides="1" tooltips="1" connect="1" arrows="1" fold="1" page="1" pageScale="1" pageWidth="850" pageHeight="1100" math="0" shadow="0">
      <root>
        <mxCell id="0" />
        <mxCell id="1" parent="0" />
        <mxCell id="H-JQjMTBBF2sA96Kup1K-1" value="Quadrotor&lt;br&gt;(Holybro QAV 250)" style="rounded=0;whiteSpace=wrap;html=1;fillColor=#fff2cc;strokeColor=#d6b656;" vertex="1" parent="1">
          <mxGeometry x="280" y="480" width="120" height="60" as="geometry" />
        </mxCell>
        <mxCell id="H-JQjMTBBF2sA96Kup1K-13" style="edgeStyle=orthogonalEdgeStyle;rounded=0;orthogonalLoop=1;jettySize=auto;html=1;entryX=0;entryY=0.5;entryDx=0;entryDy=0;" edge="1" parent="1" source="H-JQjMTBBF2sA96Kup1K-2" target="H-JQjMTBBF2sA96Kup1K-4">
          <mxGeometry relative="1" as="geometry" />
        </mxCell>
        <mxCell id="H-JQjMTBBF2sA96Kup1K-2" value="RGB Depth Camera&lt;br&gt;(Luxonis Oak D Lite)" style="rounded=0;whiteSpace=wrap;html=1;fillColor=#fff2cc;strokeColor=#d6b656;" vertex="1" parent="1">
          <mxGeometry x="400" y="480" width="120" height="60" as="geometry" />
        </mxCell>
        <mxCell id="H-JQjMTBBF2sA96Kup1K-3" value="Quadruped&lt;br&gt;(Unitree Go 1)" style="rounded=0;whiteSpace=wrap;html=1;fillColor=#fff2cc;strokeColor=#d6b656;" vertex="1" parent="1">
          <mxGeometry x="620" y="600" width="120" height="60" as="geometry" />
        </mxCell>
        <mxCell id="H-JQjMTBBF2sA96Kup1K-15" value="" style="edgeStyle=orthogonalEdgeStyle;rounded=0;orthogonalLoop=1;jettySize=auto;html=1;" edge="1" parent="1" source="H-JQjMTBBF2sA96Kup1K-4" target="H-JQjMTBBF2sA96Kup1K-3">
          <mxGeometry relative="1" as="geometry" />
        </mxCell>
        <mxCell id="H-JQjMTBBF2sA96Kup1K-4" value="RTABMap" style="rounded=0;whiteSpace=wrap;html=1;fillColor=#d5e8d4;strokeColor=#82b366;" vertex="1" parent="1">
          <mxGeometry x="620" y="480" width="120" height="60" as="geometry" />
        </mxCell>
        <mxCell id="H-JQjMTBBF2sA96Kup1K-5" value="&lt;font style=&quot;font-size: 17px;&quot;&gt;System Block Diagram&lt;/font&gt;" style="text;html=1;align=center;verticalAlign=middle;resizable=0;points=[];autosize=1;strokeColor=none;fillColor=none;" vertex="1" parent="1">
          <mxGeometry x="300" y="280" width="200" height="30" as="geometry" />
        </mxCell>
        <mxCell id="H-JQjMTBBF2sA96Kup1K-8" value="" style="edgeStyle=orthogonalEdgeStyle;rounded=0;orthogonalLoop=1;jettySize=auto;html=1;" edge="1" parent="1" source="H-JQjMTBBF2sA96Kup1K-7" target="H-JQjMTBBF2sA96Kup1K-1">
          <mxGeometry relative="1" as="geometry" />
        </mxCell>
        <mxCell id="H-JQjMTBBF2sA96Kup1K-7" value="OptiTrack Motion Capture" style="rounded=0;whiteSpace=wrap;html=1;fillColor=#dae8fc;strokeColor=#6c8ebf;" vertex="1" parent="1">
          <mxGeometry x="280" y="330" width="120" height="60" as="geometry" />
        </mxCell>
        <mxCell id="H-JQjMTBBF2sA96Kup1K-9" value="Local Position Estimate" style="text;html=1;align=center;verticalAlign=middle;whiteSpace=wrap;rounded=0;" vertex="1" parent="1">
          <mxGeometry x="320" y="420" width="120" height="30" as="geometry" />
        </mxCell>
        <mxCell id="H-JQjMTBBF2sA96Kup1K-11" value="" style="edgeStyle=orthogonalEdgeStyle;rounded=0;orthogonalLoop=1;jettySize=auto;html=1;" edge="1" parent="1" source="H-JQjMTBBF2sA96Kup1K-10" target="H-JQjMTBBF2sA96Kup1K-1">
          <mxGeometry relative="1" as="geometry" />
        </mxCell>
        <mxCell id="H-JQjMTBBF2sA96Kup1K-10" value="ROS2 Offboard Control" style="rounded=0;whiteSpace=wrap;html=1;fillColor=#d5e8d4;strokeColor=#82b366;" vertex="1" parent="1">
          <mxGeometry x="60" y="480" width="120" height="60" as="geometry" />
        </mxCell>
        <mxCell id="H-JQjMTBBF2sA96Kup1K-12" value="Polynomial Trajectory" style="text;html=1;align=center;verticalAlign=middle;whiteSpace=wrap;rounded=0;" vertex="1" parent="1">
          <mxGeometry x="170" y="480" width="100" height="30" as="geometry" />
        </mxCell>
        <mxCell id="H-JQjMTBBF2sA96Kup1K-14" value="&lt;div&gt;RGBD &amp;amp;&amp;nbsp;&lt;/div&gt;&lt;div&gt;IMU Data&lt;/div&gt;" style="text;html=1;align=center;verticalAlign=middle;resizable=0;points=[];autosize=1;strokeColor=none;fillColor=none;" vertex="1" parent="1">
          <mxGeometry x="536" y="475" width="70" height="40" as="geometry" />
        </mxCell>
        <mxCell id="H-JQjMTBBF2sA96Kup1K-26" value="" style="edgeStyle=orthogonalEdgeStyle;rounded=0;orthogonalLoop=1;jettySize=auto;html=1;" edge="1" parent="1" source="H-JQjMTBBF2sA96Kup1K-16" target="H-JQjMTBBF2sA96Kup1K-22">
          <mxGeometry relative="1" as="geometry" />
        </mxCell>
        <mxCell id="H-JQjMTBBF2sA96Kup1K-16" value="RGB Depth Camera&lt;br&gt;(Luxonis Oak D Lite)" style="rounded=0;whiteSpace=wrap;html=1;fillColor=#fff2cc;strokeColor=#d6b656;" vertex="1" parent="1">
          <mxGeometry x="500" y="600" width="120" height="60" as="geometry" />
        </mxCell>
        <mxCell id="H-JQjMTBBF2sA96Kup1K-17" value="Sparse Point Cloud" style="text;html=1;align=center;verticalAlign=middle;resizable=0;points=[];autosize=1;strokeColor=none;fillColor=none;" vertex="1" parent="1">
          <mxGeometry x="670" y="550" width="130" height="30" as="geometry" />
        </mxCell>
        <mxCell id="H-JQjMTBBF2sA96Kup1K-19" value="" style="edgeStyle=orthogonalEdgeStyle;rounded=0;orthogonalLoop=1;jettySize=auto;html=1;" edge="1" parent="1" source="H-JQjMTBBF2sA96Kup1K-18" target="H-JQjMTBBF2sA96Kup1K-3">
          <mxGeometry relative="1" as="geometry" />
        </mxCell>
        <mxCell id="H-JQjMTBBF2sA96Kup1K-18" value="Manual Exploration/ROS2 Autonomous Exploration" style="rounded=0;whiteSpace=wrap;html=1;fillColor=#d5e8d4;strokeColor=#82b366;" vertex="1" parent="1">
          <mxGeometry x="620" y="730" width="120" height="60" as="geometry" />
        </mxCell>
        <mxCell id="H-JQjMTBBF2sA96Kup1K-21" value="Velocity Commands" style="text;html=1;align=center;verticalAlign=middle;resizable=0;points=[];autosize=1;strokeColor=none;fillColor=none;" vertex="1" parent="1">
          <mxGeometry x="670" y="680" width="130" height="30" as="geometry" />
        </mxCell>
        <mxCell id="H-JQjMTBBF2sA96Kup1K-32" value="" style="edgeStyle=orthogonalEdgeStyle;rounded=0;orthogonalLoop=1;jettySize=auto;html=1;" edge="1" parent="1" source="H-JQjMTBBF2sA96Kup1K-22" target="H-JQjMTBBF2sA96Kup1K-31">
          <mxGeometry relative="1" as="geometry" />
        </mxCell>
        <mxCell id="H-JQjMTBBF2sA96Kup1K-22" value="RTABMap" style="rounded=0;whiteSpace=wrap;html=1;fillColor=#d5e8d4;strokeColor=#82b366;" vertex="1" parent="1">
          <mxGeometry x="280" y="600" width="120" height="60" as="geometry" />
        </mxCell>
        <mxCell id="H-JQjMTBBF2sA96Kup1K-23" value="&lt;div&gt;RGBD &amp;amp;&amp;nbsp;&lt;/div&gt;&lt;div&gt;IMU Data&lt;/div&gt;" style="text;html=1;align=center;verticalAlign=middle;resizable=0;points=[];autosize=1;strokeColor=none;fillColor=none;" vertex="1" parent="1">
          <mxGeometry x="420" y="590" width="70" height="40" as="geometry" />
        </mxCell>
        <mxCell id="H-JQjMTBBF2sA96Kup1K-31" value="" style="shape=image;imageAspect=0;aspect=fixed;verticalLabelPosition=bottom;verticalAlign=top;image=data:image/png,iVBORw0KGgoAAAANSUhEUgAAAOIAAAElCAYAAAD5ij5vAAAACXBIWXMAAA7EAAAOxAGVKw4bAAAgAElEQVR4nO2dwZUjPW7HIb+9OwAfJ4M57NGOQHXvL4I9eiPwOoKdKEb3UgSfA/gy2OMGsBHIh272QGiABEmQRKnwe2/edKulKqqKfwIEQNbl7e3tAUEQLOXfVjcgCIIQYhC4IIQYBA4IIQaBA0KIQeCAEGIQOCCEGAQOCCEGgQNCiC/G7XaD2+22uhlBJSHEF+Dt7e3La0mM3N8Cf/xpdQOCdqjlS7/v+w632w3e3t7COh6EsIgHJLmfydql//d9//w7/j/wzyWKvo+JRmTJIoZ76p+wiAeDBmOSFUw/p9+ptQzr6JuwiAeEiirNCXGA5u3tDbZt+3xPWEXfhEU8GDggk/7ftg1ut9uTdaQiDIvom7CIB0MSFCe2JNL098AvYREPTHJBAfi84bZtT+8J/BJCPBBS3rAkyMA/kdA/CDRBj4UnpSlCjMchLOKBwCKkSX38d/pz4J+wiAelZP3CGh6LsIhB4IAQoiMkdzLczNcnhOgIyZ0MN/P1CSE6oGYxb4jyNQkhLgIvVdIk3UOAr02UuC1AWrQbYjsvkb5YgHadYKwlPA/hmi6ktJKelq3FxlCvS1jEiWARaRfs5krYgrHMvOYxR5wAV4pWc4M5AQdjmT3whWtqhMZtpPWh6ffSZ6V60mA8s653uKZG5EZPLkJau91hWMI54HTSzEEvLKIhNPgi5QprtzsMKzgXOhWYcf1DiMZQ8VksTQprOJ/Zg18I0RguKGM5qoZ1HAd3bWcFbUKIhuSeQRH4hrtPETU9KNJ+MSHGNWii2KX3zRJjCLETbmJvnfej885ARtpgy/tgGOmLTuj8zypAQz+/qiNJm1Z5pTQf5+6Vhw2YwyIaQJ8zkXvPqOOPwrvwMJInQgczbRppZm1vCNEQ7sZpVt1L6xHpaL1i1JYiiastCIbzQEpWsTS4zR78ota0A41bQ9262vmjhzpT2n5PVrJnQKCu6crvFxaxg9LcKSfSmptNH0C6Ci/zqV5wbteDCAFCiN3kljNJc5Ka4+LHq3mxRB7a0eMer0zcS4QQjaBzPvpz65zDMgJrgYc2WOLl+4QQDeDmgVJpm3aLDDri42cfzmS1pZB4e3szvSarv2MI0QAuUtobREj/p86W3NPZI3hLgGkW+GGsteDB0sO8N6KmC9Akx9N7uMdyz8abEC2DRl6KFcIidoJFwrmU9OfazrPaNZRKxlaSrkera0qvp2Zf2dGEEDvBNxH/T+eMnFXRCtNL1HT1+SlpkKoVpAcLSAkhGsBZwvQ6QH41hjQHw7nDfd8/XdTZHGW/nFoxcgPkSkKIA6i9udxi4sS+708WcXXH8dAGShJUjYXzZhVDiIvhaiNxx/K2+oHOhz1RU8W0+jpSQoiDoGFxLkCQKI3m3jo8gL+OnIPeg9XlbByxHtEAroRNI8DcazV/D3SDlWbVxSrCIhqhWf50BBcph2ZQWUFJhDiQ49G7AIiEvikWKy08Qr9XCiB5+F7YypWWo3kmLKIhUuH30aHfxYsIAXRWOqV+vLSZI4RoyOgFtKvcKs4ieoVr6xHWUYZragx1lXpFSTvR7EXC3Hk8W5ajEhZxMBoReqh15OCKCzy2M+Ext6klhDgA7KJqOi6X55JKy7Ztm9bZuLnhUTu6dyKPOBDt8iHseiYrJK21W+2aeraInttWIuaIg+D2qymJcdu2p9pSjlUbScVccSzhmg4EV/iXOm0SX2nV+Uz3UFq+FQK0JyziAEruHCekkiWk7x0tRm7w8FJ4/orEHHESOXHebreq/Vdmzw85S+ht+4yjExbRkNQhJVFJSeVaa5gYJUjJGtJlWSFAO2KOaEhOTLnKjlprONoi0igufo3+LdIZNoQQjZFcNqsOO2P7P2mxMm4D93PQTgixg9w+NfTnXtK+NSsY9Z1a2/CKhBAroYn39HNpztQrom3bujbUtWS2MDkL/WpEsKaBlR2ixzXligtyFl17PC01AZ5XXdspcXqL2BJwqF2p3msN0+dxVU1Lh8Tf1XrOqjm3dgCRqnheVYQAJxcijQjWwG3+JAmu16VMC3FbXEIusCJ16JqOnoSh2fyYc+dL7z1bFc8pE/pcHWjrMaTfMRZRTk1VCyeM3PpIKoyaNmLrSvddtRD62QoGTinEUeF/6Zgt1rZm1QOuaaVF4VKqIRWY91yHVIjAPbGKG+Qkkebmg2cpqzt1sKa1nrJmviNRU02TwO5azvKk41KhcUl5yogBSmpvri1Hq97prTg65BzRMtCgORc3N+ttQ8u8kbqYOKVBrRGdY+F6VilApflONYGn3BKw0nU8SqqixnPJcTiLSEdR6xFTsiD43PR9rbRYRQ6unfj19DP+G/d5LaV2c1FlLuBUwqM15Pof12fSz1oOJ0SM1Kmsj0cvNA6KHJmWQaWlQL3H+nujNiin/R6HEeKskZSex8pqtdLTmT3Q2n5vc0RtXKC13W6F2Ov6tSa8vbF6IGhllNvtgVz+mfOgNLgO1nBJ3dZcVPp9Rd0iroxpqbLxvKGvBE5r9LB6cMz1l9xrtZVAwy1i72iWC5ZoJ//c+1ZYmpZzjqrWGcWI6+rBKkoBGY6WdpoLkavWaMnV1ZzvKOAEuKaztlgUnEPEv5faVPOZBwBcqlvWx2wRSgP9CBECDBIiB5dMHj3S1bRlNLWWwtIdrXETcRulNichzgwkjRSiZR9o7dNDStxyeRbptVHtwOALNKsNtLNq9y0d0Yaa91Ir+QQRNn3PkVxT6z7Qerwhc0QpodxbBjSC0WLkOimt0Twa122De6HtXA2qBSO2khxV1leDedRUsoTSZHf1HG/kgCCJ8AxQi2m11YfXIBWltl9PS1/QcC6XmhgNl77AtZmWTzviOt1Rc4KW9ArSciCTam57qU1dABgLsbbGcTbpAnH5xZH1qxxHsoy4YNyK1u9v2Y4WwYzCRIhSB8ZWz8sXTuC5avoZ/2tFM+Kvtoq13y95C1aDae/3Hzmna+2nvZ8fFqzxJrxEKWBkldbIiTEbkTwANFjTcr+tyt8ssBJ2TyDSba3paHJuaI8YuQQ5gNzxVu5V2tqRNVHTGlaL0jqP2ILrWtORSBes1yJy+cLVriiHJ4/lqJ5BIl3Lnu9xWiECyEn93jki93OQp/VatcQf8GBrYQ0tpmKnFiJA+7KVHLRTWebRXh26h6tEqwAT1l5Kr6hPL0TrVf5HZlReTYOmxjUHzgvnIuCjvl9vgM+1EGdU30jBmlFg6+jNQlIrM3vNZs31oMLDr2FmFvbTttXgPmo6KxXCLd+qxZuwRmEdNZXodR9z/WZULrK1ntq1RUzMWqlhPVf0zPXqL5KLqVmviUsU8e+Y1l0eauiJuLsUIq0Dxa+NZJVbNpPrtrkXoZa0RSPArzI8SYQ4bzximRb938V6RCtWL5mqGd28u6XX6wY/f/72tLx+gys8Hu+/XC7vM5T0+/2+9vtIARv6OhZirpY4vXfEAGuxvM+lEOnFXdmGFZP9EdzvO/z22/Zlj4skuH2/w3XbnkSaWCFOKkIpP5sTIGX2rgw1uA/WrKbmpnm1ituHK/ogIrzA4+uLDOktF/hlNZMoRwyWkiXkpircutfZQRqMq6Lvo4NHzpV7zVhy/fgO933//BngXVz7fjc7j4Uwa+tya8TlYTU+h8tgzUpoTqpWhB7rSrft+vXFx7sIHwqLWIOlCDnh0bzhahG2tIPj9EKkwuvpSLjIGz+paTWPxwUu8Ph0LQEA4ALwgEv3vojWlSs4sU+vH54PAvRtNm2F1U4TLoM1s8FitFwA68FN3bYrPOBDdABw2R7wSHpsECG9NjTlY+GmcVZREqWWkRFTC5ZZxFJp0ozzA3wdyaRc1NG4XrcPEf5S233f4QGXz1RFTXUMvl74+nA5X0s4AaZ21DLynh6y6JuGnFd0elppkVwibSjcOz9+/P7lteu2fQZnkhhL0IgkLabG18pqYOV2v+OKLVamtzAW7unUqCkNP3u4iBSLdWoeXFKAj0gpSuDf9x227Qr7fv+0ljmrSEv+uHsmuaq9c25ufs3ldmsqr2ZXZ9UwbY5Ik6mrq2YkvARYTPifB8Dll2v6nrZ4fNwDJpIKX11Q/DrnKXB5vF60u6KXzldq6wha+/TUfU3x//TnV8Dd0qb//aiIIW263X4+zR05uPV8GotYoka0kghrzjmzj/XEFpbMET0LEF9MV6JSInXS+74DPEDMG5YsC1fT2cLMgZgWYePv6O3enj6PmOOIbirt3KmSJtWR/nH5/vm339B8WBtwsJhDt9J6Tuxuqx6ys4AQIuHo0VIKLme77zv8c//b5+9cGoK+nmhZYWBl8Wg7awNBSWxpqRTGcrA9XPrCE9zFa5lwexlZEylVAaDPF3LBDSltoKW2c9JkPr6uOIeZW/tH3d9t24YOsBbpi1MLMSe4ng7kggd8SeZfmQ5J53xcgMYKzbG4TZmleSV3PC4yOnqPIOwttF6v06++sIgEAviyiHhPGbq/TLKUNIeYS0/g92iprQOVBgKAr89E1Oaiub+PHDBxuqXWOp7eIlLwhL4GLxbxStpBlz3h1xMaVzy5d1xaQ6Imx5eQrr80Z5WOy7nRo+9RalNLvfKpLSJXOdKKB4uI1xzS1+8oYPHz5w3u9/1LZ6aWCb/OketwrRYxkaus0Z5vtkXE1Irx1BaRlkx5zm+WoCLMBaFSnakkQropk0RvTlGCiiUXjOF+x23Dx5wVsGkZlE8tRADfxQVaOEtYG4TiLEeu4+aE2nLu5O5yFktyN7l5Jc6LamplraDnDNe0k9ZRc4Vripc5lVIU2D3dtiu8vf0GAHyRdsl901ikHnJbZUjucw5a4zzKPeWK0rWc3iJSWl2t2cGa63Urrp7guN1u8HhcmsVU2r6iti01FiRdYyyqUg6PC/JwGxH3DCZ0YGi5FiFEwhEqa67XDe73/TMiWiPGn4y7Rl29Vuvecu2oELZtE89P57TUDZXmirl8Y4948Dlo+2oJIRJao6dTXdOPPH3rMyhSsKZ2zqT5jjVpDe7cpXO0pERy77Msw4sStwWsTlfUipDLJ0pumdShajo6l/6osRxcNUxvu+j7LQI42uKCEiFEgvamlrb9G8WMJzG1huDpMejPrR2V1pv2YhlcsioHDCF+0FMnOJseMabythK5Rbm08Fp6Xw94O8pcW3rndr0upVQHW8vphYgn/AC21s06kpo2Cp7xbEKuSJp22FIHbpnP1WyNQfOItYKyiJha5SZPL0Qaws5F7Wqxdllb0hVfjvGoOwYnRk2HpxaTfo7rvNgC4oGAc01neTBcO7Wv1XB6IVJaEr4zcogWzzScYUkll1WTn6VLoDjXlMshjkQqFUxYtSGEmEFr0bj3mYvT8BEV//jHv3d9PpeXkzYEzn02h1TyhqcUmjnrCCzPF0JkqC2hkvCyNOqJBkFLA03q/FiA9L01FTytczwNUvJeY2FpQGaE4KPWNIPWTZU6quUcUVri1HKc1mPkrsWqIFetGLnP5ix87TlamWIRZ9QhWsGN8rVYi5B9rNpE0vWXvpMm6a79ey0jgjY40T/L3Z3mmvaUH3leqsR1zhHR0pXg608foc25oprlU71whdsl6FzSqlLHgilCxFYmx8j1YlrSCLu6hM0z0kZMFq6c1guxKk0rvTZLlMOFiN3L0oWzqtuzwFugZUbqoZfexLjmmqfyu5Zz4WgrN1+k/c6i8kbL0IfQlJaoSKwWoSeu1w3+gO/lNypIDy31iKazSw8trXFNub6IxUYLwmcZhaEW0aK63TvDLecF4Dv8YXKox+MCXpVYMxXArnGtxcqlKHBMYna/He6aHlGERyn+fgWS1dEMaHiFPnUbsYha3Vbu55eLmh6FWhEeKahzv+9wuTzYfU5nUSoZ48hZvzRn7B08qRWcbUBCiIizWEJp02ELWq5haf0jfXR3biFzT+SWzhVn9gd3ecRgLOn5iKPEqI2MU3L9A0dJJatoBRX8y6QvAHykI4J37nf0vET4ukW/BTXuZ0s0nRZ6U5ey15qtSKNNySMeRYQrKvg1WFuvCzyG5iVbCrul19ODXXKrOHLWsobWBcYWDBXikUSYWOlCs5FDRbqhtKUEZd/vsG3XpydGzaJ2US3uQ1gkPcXeubZx1nYGw4R4RBGuhgtY4Edtc1ARasX4eFy+PL7NIzkLSq2XhfvL7SQwY/FBRE0RHlMX3+GPapFoxHi/73CB51SGlRgtFv/WHF/jTmraRFdc0MqakYZliBCPag29tXmWlaIPMrWkpnSNw+Ke4OQ/J1opuDSzP5gvDD6qCAH8WcTrtr3PES8gbq9PrUltm7btCvt+fz4fvFvMEXCF1fj/xMg+pCnm5pZKHcYiHlmEAPVR0+F1po9f2+Pn0g1cx67hafV/59LH2vNL19xyPpZbdYHbwX2Ga9OIuaKZEI+csG+tphg+R7zAp7WS4HJrNez7HS4kNJvE30Lt+XPXfGSfkkRGi7+5BP8IY2MmRK85OA1e2z2yFA2T0hn0GYozSNeeG9Qs7kvql9pBk0uP5MrrrIio6cmQrMzjcTFb95hD6si5bfV70a7uyJ1zdBojhNiAtFXECHIVMC0BDuk99/v+tO7xARc3m1b1HqPlfklixP9bMnSF/pHQRNJenQs84LFdAFIJ3KQcPxehxLSuqHh7e2PL4zwSFvED9yJ8vAsFHu/zN7oFv8UonQI3M3eNw9dc85DSmnvk+n4SQogfuL5pKIj548fv7w+jue/w8+cN/vznv5i6Svt+/5wrpiCOBaUV8Ll5XM/q+55rM7MA/PRC5MLWJVbt8PZ4XOC///pfT699+/Yv8/N8f9SX1ZXgtrVID5rJXc9VK+bp+UdzeiH2JsNncbk8nvJ7I9Maqarmum2mVnGmNbM8zox+cXohtq5Bm2kVn8rNPrRIk/BatO0esSoDX+NSO6xqTHvdS83qDgtOLUTPFpDyeFzg8bi8W8XHxzb8lTEVvFRK4xZaLx7G4ppV6G3BYVdfHAWvFTUc9/sO9/sO+35/t5AfBlFrsXKCywnyvu/Tc4oWA+SR7i3ASfOIR7KEEj9+/A5/hf+EB1w+Uxm9KyakZxze9x0e18uwFRkULrDz6pzOItLFn61ocl4j+fbtX+/W8WPFxOXygP/Y/jbsfPf7Ps0q4nuE53i119TKPZ0xcJ/OIs5K3HPLakaP7t/hD/hn5zFmle5pUhYYXPmkvY45y9oiaqltFpzOIgL0rxRp6awjRZjmcQD9Uc5Z0WDtNaRbV6T/W4WUfl6VSpE4pRATrzT/SBFObgWFlbgsc4o5NKv2W/cvbfVMRm8gdTrXlOK+xrSGj201JNIeobm/e6LkWra4qOmz3ji1RUzMXNTc41KV/paWMknuKSfC2iVCo61iagu2dtT6ae8XrWm1DN5YizmECOOKe3Nr2rTk3l+/LcbO/r5qryFuAEiDBZ0btm8FsmetYcv9KC3basF8F7ej4mqvmgo4ET1tBkXAVpF7nJm+8P3X7m891M5faywhZwWllR/0HNwxRu7oFhaxEg8ixJ0Xr2RISKVp9HM91iE9VWoUnPVrtV65rS+4v0nXZWSpWwgR7Cfvo4MBXNClFIgBeN7pTdMBRyPNWQH080D8Pm6TJ2wRawM2XJAn8ojBE5xlxq/d951dxW82ql/G7PS2bdvT96jJNyah0M8ky1f7nelnouj7YMwKfJRWT+BUhrQkqPS7FfonVckDTG4uxyX7uflhi6WdwemDNSuDNDOildfr9lSszQmv5Xtdtw0u8FAHbKSCck1eE0dSKS0Lu7Vu6UxOaxFrUxaaOVgtM242XtVf+r4j54gpX4mteO65HViE6bM5t7qm7aXrvqLI47QWsfVCz4iaWlvKbbvC29tvbAdrsYhp7plEXmsVJagFpK9LWFrChGUBgIZTWsTWpVCzUhejbr5Fx0oBmh8/fod9v1elMUrXj5vzSp+xtlglt3c0pxRia8EwQHlU5/4+e9e3r535Drfbzy/fubUz3+/75+5xmsXCtU8zpp/lPtciklzUmCuHm8mwB5V6B+fU9NUkW3FUx3/PzYdGIrURV9K0DUL6ahrNnjhauKhpj3ByxeT4tcNbxCOtaKi1jNqO1fsAUfvrd/mYKz53Qm27rtetuaQtBWlS0KXVxeeS9PgcpXsppXCk488cPIcEa2htntd1fy2dXTPPaf3saN7nd5fqJHVLXSmtaZX+piV37ZLIudK/hFZ8+L0z+/DQOeLspGgNtSLUjOQa13Um2DV8j47eAeBRFayyKO6mLmrPNZLuW06E+HXJ7ZTK42ZhLsRVS2q0tARptDnEEblGiZbn/aX/tULoEeGoAYmr/8SDZKmWVlNZtKIPmwtx5hdotbgtn+ntWJYdE7tidNPg9DPH+5zwfWFvaTCyWuZE290bwMlNe3AwiittS69zYs65rjP6tKkQeyJyGloLcHM3QUOp46TjSe+rFSEnLno8WjKGrQJnmWuWFFmJUPu9S0XeOBAjzf1y1p6KUnP/D1tZozXnFmZfOxHnPtMzGpcCBi2fKx2PVptIS6BK7cDvee+MPz/FRutRVy365ZAqXDirKC15wrQKbLRVNBFiTZSJ5n9qqa0zxDeyNYkPoBNTbn1dDTjowwWAcmsRS0L9dYzrp5u67/ensjVLl9RTfa5GqCPPn8PENc2NVprP1FyU2+3XAy3xz7n301HVOpCARdCylo5Sewx8DfTLje5P6xXv9x1+/Pgd/v73/6to6Tws5moWawtHuaxmc8SaOUgiWaiaVdklSytFy9L/3JxKS01526ioIf5+OEEufZ9cO1K9aOLbt38NefBp77XwWCBi3R4z15S6gAB5NzK9L03EW1wGOnfQzD/xXFGq9pfAFSIUmlQenU/MzQU513RlcUWvezpqJYSVmCza1WwRsZXhRixN4/DnWi5KywVI7mytCBM0MIKPR0U6KqcozQFz0dJVxRUW18BShKUyt1WohcgJhr5WciFKuZveCXTNzWoRYC5PRy2itsqmp9yLC+j0uN4j6K0vTXiyXrnjtbaz2iJKYmsdeS0usGaQoK9jd60EtnZUaDR/hQNCyWJqjl0DbQNN7uP3eLCCVu56b18Z4Z5bWVjzPKLkRlgU0kouMCdA7j3cPFZLyeVsici1FgDQVAWXa8Tk7slMoba6qfh7WonRkqVzRICv88RSo3obzJ2HBnpy7eit/ElWJ1e9Qc8rubO9hQXcnFQzP+3N49ZiuS4RYM1awRntmLJnjSaa2gIVIK3Ab7V+CSlKKi27wekRjprorAZvqz0kegcd/D1772k6hiUWUd3Dbx5FL8K2bSpX1Do3lZsb97hk6fPU2uVSKR6xFGOi5f6NFGGPGA8vRAB4sobYZbBOH+QCK5IgekVIj+VZeLn25a5DbSUW/Z0LyGlKLHuw9vCGLgymEaVRuRsswpFzB5omKHU6C+Fw1Tp43mU9B5POnXuNtq/2M/Se0ePg99B7nAvOca9bYT3NGmoRW5L8refBFTrcnHEkeJlO+j3R2wbJCs+wjJq0g8ZNLl0DrqoKCy4XY8iVNFJaUkUaXM8RLfzmWmilDl3HNsoiS/M3i+NKpXOSSHqsMLfqQxoENHW1NdeAE5rUf+j7asQ4it4+Pm2OODtnhRlpHUeWtOWWNI2eL/aU/tUcJ5cb5CxfSZyl13qhAzr3ewvTNhgeaZEkkjUcLcIRc7ScVbW0uqU2aKmdT2rfI1WtcK/PGOg5a5zcaJeuKWaFNcyNspYDguQqjhT/jBUeVtFe7fxQ87eWe2qdoqLHpK+dOn2RyM0FLQUozdno6yPEODNI04r2u2s6bSkwU2JE3pA7fq8gX0aIuQs+yi3mhDfDZaRtsGRm22s6a889tMwdas9XK8SXfgjNjLwi/XlmR7Y+7+y21zA7vtBDS597KSHmhNeyOkJDjUVatWpf87kVIjyKuFK/ooUptFil5/u8hGsqrcDAf7dmtguao0fgHr7DSK+F5pNrKbXNKl9+eCGWLoAU4colg0czQsQtYnx1EQI8LwRv/b65ulWr9v/J5CgLKV0IyToexS3Sok3wexAfZmRqC99jb9+bcniLmIOrgOBueu96Rfrzamsr4bkzjhCjhTVMcAO6ZZsPbxFL5II0vQLEN1eaK3ixvJ5FOJqW716a91kPHC8VNaXkfHsLK5h+55byrKytBTi38BJvb/onIlNm37+XFWKp5Kk1x0g7eDretm3dEToL8L46q3KbLYy6Xj2CmnkPX1aI2hrGnlGPE3MSZPq5Bos8Y67W08tepzPpEeLMhQovHazRYrlMKomTW77kwTJJWzDORJpDj84ntjDLPX1Zi1hDS2fEW2bg/6VRVLMubwY0zSH9PBJJfNR6WYpAeyy8KDnmiE7I3Qg6/6JbK2KkDj5yUTF3rpJrWrsxljV0lb5lwERrEVfN7UOIAtr5ATdHlNYmcu+dDT2nxeLdFqSlaiMskZcUUo6XzyO2gm9ebj6VW6yas5KzyVm72QMCvRaz64Q9EkIUKO1MVgp2aIMQJcs7InLXOie2qE7BqR3LKicrVg2Yp3VNU4eQbnzqdPg9dE6H9ytJf88lkfGITz+XXkvgpTf4da54QAPXJtpezZy4l5L7OVoINYt7Z3JaIeZuCA5scFsgcJG9ZDGScKXOxhWdcxsQcZYwubs1nSR9h1RswLUHDzrc51vwmkQvHb9375lWTptHLN0Qus0fjegBfN2nRnPzem40NxiU5n61baLf2SrHah0FTWiPKX1HSrimi+AuPHez6I1MHaBlR7WeSg/cltx5azs9Fgo+T60IsUWX/mZNTUmhRxECnDRYg1dKUCTXkBNB7SqLXreLW9khJcBrLQX9PP49t5CaBnHoKhTsio/o6LWJ+tQWjlVuKUC4pmynoaM6N1fLiTl3zhGuGS00752fadxIzj0vrc9cCXePPVnH07qm1JKkDo1vUErO08CLp7pFHMDpOT432Gjej93zdK3SwCAtEZtFzmX1JEKAE8TPfA8AAAUfSURBVFtECp37cSkLgLZnMIzGUoS1x8HXiVpkyU2dRc95I2o6EW6OhYMwOPJYcte0c0QPbhqHRdtKc9bZ5KqeSu2ZfZ9OGazBSPk1qZKkVNK20gL0YNHxuEFtNJq5LBfxzjEq1ZLjtHPEdKHp/jP44ksJfQ5OhDRJfyZmRSC1IsRtqmHWYHoa15TrGFwoHuB5zV5tVJTjjEKcSe+UgSOipoPggip4Ua/0VCdq0aTgTO6GJ3col7cM2rFMRdCBepZFPI0QsctIq2JS+F9a7FsTHZUqXTgX9WjzSI/g+8lRO9/D7505rXhp11QKp+O/AcCTG0pf59xUGpih0EAPN8+kCfEQZB+lOWnN9V3hpby0RcRph/Q7wLNbigVBb5Z083KrFdLfUyAIHwvfYBwgChH2oZn/Y2jlFHe82ffkpYWYyN2g0twO/08toJT24FZu4M/W3uTWz52JUnSb6wOe8rqnEGICX3icqM+tMMCi4vZ7oekOHOTRVqxoRuCayOBZBIuvG/1ZQ26OHpU1g8ElWZwAuTkkB53Ic9tq0I5R2m4C17xygi6JmX6HsyB5LBjpvtJgzqz8J+UUQhxhISTXh1o3Oi/tWWSbs4irO5IH6HXXehFcRDyEOIAaESRXlHZs6SaXLKjVIKANw3ua98yiNT/r6VqdQoileWAOrvCbC8QAlEXXK0qu09BBg/v51aGuKfe/d04hRIpGENx8QxIC9zltAYC2HSW3lL7nKB2wF06E+HVM7p6sFu8poqa1N4jmmbDVo509FYaXLNGoG0s70Ioc2Cy478aJi94Dmj7iPrt64DqFRcQJ/JqOKt0o3OlLFlDrtta2h2N1Z5oBZ8Xo77nUkddrdAqL2LLDGp0PYkHRnds0IqT5Rm1bSlUg9P2vnvzvDZDlUhwrOZVFLOXw0nu5VAAO+HCuKHdzuWNpo7ceR20PaHKGlCNcy1NYxITm0WR0bgHwywq+vf3aGAnXpmqDP1J7cu/1OHqvpCVfeoR58yksIoWLMOL8IeeSSp+rjbKVRnQPyeUj0VLO5vF6nnLPmlzeTRIg/Rx3vNpzB+3gggrNtfQsQoCTuaYYTnj0huLIKOeySimDWpFJqZFAhiuuODKnFSKFE1JuxOXyVNxxJJGWXF7uPMEvuAGyhNeIKcDJ54hW7opU3SGdN/eadxfKC7l8ooTna3pKIQKUS8NqAzCaziBVd0hzUM8dZyW5eybhfTuS0woRoBwF1YgxJyz8Gn0/d9xel/TsAtYMhF7d09PPEWkuEP+f69A4kAPwdaEw915u/kjbUfrdYyfyAJ3XU1qffDyLUwsxl0qoCYuXop2SQKXIX20u8ezBHZqGotcTVzN5HchO7ZomuI6sCbpoRFhCO7fEx28V/qtSmncfwWU/tUWk1Ebf6I3N3Wjub6Xz4TmNFHHl8Drqj6LkQdSmOVYQFhHREjHljoFpCQ5YVN94jxKO4qhuelhEhEVlSxp9JQuoAc9zcvPLHD2bVB0RKsAjiRAgLKIZ2uqYXEldiR7ryrUx8ENYRENo6kOyijTlIdWyAsCXbftrwMI9gwiP7IqHRVyMVKqVKwyoKe/KVaC8ujCPRAixE4vgQE0heI17mouyhgh9EUJcRG3uUvqcJEoppB9i9EkI8aC0CIpWoIQQ/RBCdEDM3YIQokNmWKsQvS8ifeGQEOH5OOXmUWcnBOiPsIhB4IAQYhA4IIQYBA4IIQaBA0KIQeCAEGIQOCCEGAQOCCEGgQNCiEHggP8HxkaWSAqPuMgAAAAASUVORK5CYII=;direction=east;" vertex="1" parent="1">
          <mxGeometry x="50.72999999999999" y="565" width="100.27" height="130" as="geometry" />
        </mxCell>
        <mxCell id="H-JQjMTBBF2sA96Kup1K-33" value="Dense Point Cloud" style="text;html=1;align=center;verticalAlign=middle;resizable=0;points=[];autosize=1;strokeColor=none;fillColor=none;" vertex="1" parent="1">
          <mxGeometry x="160" y="608" width="120" height="30" as="geometry" />
        </mxCell>
        <mxCell id="H-JQjMTBBF2sA96Kup1K-34" value="Navigable Occupancy Grid" style="text;html=1;align=center;verticalAlign=middle;whiteSpace=wrap;rounded=0;" vertex="1" parent="1">
          <mxGeometry x="46.300000000000004" y="695" width="109.13" height="30" as="geometry" />
        </mxCell>
      </root>
    </mxGraphModel>
  </diagram>
</mxfile>
